<?xml version="1.0" encoding="UTF-8" standalone="no"?>
<svg
   xmlns:dc="http://purl.org/dc/elements/1.1/"
   xmlns:cc="http://creativecommons.org/ns#"
   xmlns:rdf="http://www.w3.org/1999/02/22-rdf-syntax-ns#"
   xmlns:svg="http://www.w3.org/2000/svg"
   xmlns="http://www.w3.org/2000/svg"
   xmlns:sodipodi="http://sodipodi.sourceforge.net/DTD/sodipodi-0.dtd"
   xmlns:inkscape="http://www.inkscape.org/namespaces/inkscape"
   version="1.1"
   id="svg10"
   width="136.53333"
   height="136.53333"
   viewBox="0 0 136.53333 136.53333"
   sodipodi:docname="logo.svg"
   inkscape:version="0.92.4 (5da689c313, 2019-01-14)">
  <metadata
     id="metadata16">
    <rdf:RDF>
      <cc:Work
         rdf:about="">
        <dc:format>image/svg+xml</dc:format>
        <dc:type
           rdf:resource="http://purl.org/dc/dcmitype/StillImage" />
        <dc:title />
      </cc:Work>
    </rdf:RDF>
  </metadata>
  <defs
     id="defs14" />
  <sodipodi:namedview
     pagecolor="#ffffff"
     bordercolor="#666666"
     borderopacity="1"
     objecttolerance="10"
     gridtolerance="10"
     guidetolerance="10"
     inkscape:pageopacity="0"
     inkscape:pageshadow="2"
     inkscape:window-width="1920"
     inkscape:window-height="1017"
     id="namedview12"
     showgrid="false"
     showguides="false"
     inkscape:zoom="4"
     inkscape:cx="-17.967042"
     inkscape:cy="52.340432"
     inkscape:window-x="-8"
     inkscape:window-y="-8"
     inkscape:window-maximized="1"
     inkscape:current-layer="g18" />
  <g
     inkscape:groupmode="layer"
     inkscape:label="Image"
     id="g18">
    <g
       id="g849"
       transform="matrix(0.83196853,0,0,0.83196853,14.046874,7.9903034)"
       inkscape:export-xdpi="258.51974"
       inkscape:export-ydpi="258.51974">
      <g
         id="g904"
         transform="matrix(0.61607463,0,0,0.61607463,2.6012892,31.737407)">
        <g
           id="g890"
           transform="translate(0,-28.979928)">
          <path
             style="fill:#3977a7;fill-opacity:1;stroke-width:0.0164498;stroke-miterlimit:4;stroke-dasharray:none"
             d="M 56.593547,68.475273 C 54.765627,67.485118 49.729024,66.017388 46.539114,65.545282 44.038001,65.175119 39.416666,64.954321 36.71036,65.075685 l -2.261848,0.101433 v -8.140821 c 0,-4.477452 0.03722,-8.178041 0.08271,-8.223531 0.04549,-0.04549 0.869838,0.07028 1.831885,0.257271 l 1.749177,0.33998 -0.07845,7.34345 -0.07845,7.343451 2.811386,0.0092 c 5.371514,0.01763 9.431846,0.919426 13.832751,3.072233 2.042017,0.998902 2.987897,1.557633 2.631968,1.554701 -0.09047,-8.22e-4 -0.377546,-0.116759 -0.637936,-0.257807 z"
             id="path870"
             inkscape:connector-curvature="0" />
          <path
             style="fill:#3977a7;fill-opacity:1;stroke-width:0.0082249;stroke-miterlimit:4;stroke-dasharray:none"
             d="M 60.451216,68.456634 C 57.272871,65.482833 53.577594,63.510582 49.470976,62.596238 47.401484,62.135463 44.409845,61.888535 41.859718,61.96801 l -1.648206,0.05137 0.024,-6.312261 c 0.0132,-3.471744 0.04682,-7.952553 0.07471,-9.957353 l 0.05071,-3.645092 0.298633,0.04271 c 0.164248,0.02349 0.585477,0.06617 0.936063,0.09484 l 0.63743,0.05213 1.31e-4,9.01981 1.32e-4,9.019809 2.076651,0.02101 c 4.840707,0.04896 7.846546,0.539383 10.959543,1.78811 1.789633,0.717882 3.137702,1.463683 4.865,2.691496 l 0.917048,0.651863 0.05575,1.166093 c 0.03066,0.64135 0.04363,1.448163 0.02882,1.792918 l -0.02693,0.626827 -0.657992,-0.615647 z"
             id="path872"
             inkscape:connector-curvature="0" />
          <path
             style="fill:#26a9e1;fill-opacity:1;stroke-width:0.0116318;stroke-miterlimit:4;stroke-dasharray:none"
             d="M 62.296442,66.307418 C 57.478346,61.991498 52.198131,60.173041 44.470763,60.16842 l -2.006479,-0.0012 V 50.163902 c 0,-8.068968 0.02889,-10.003317 0.149426,-10.003317 0.08219,0 0.946512,0.13081 1.920728,0.290689 5.606383,0.920063 10.146532,2.315077 14.263064,4.382492 1.459074,0.732779 3.44965,1.897033 4.109884,2.4038 l 0.25128,0.192872 0.08168,9.85792 c 0.04492,5.421856 0.06029,9.856726 0.03416,9.855266 -0.02613,-0.0015 -0.466262,-0.377751 -0.978059,-0.836206 z"
             id="path878"
             inkscape:connector-curvature="0" />
        </g>
        <g
           id="g885"
           transform="translate(-0.0625,-28.780946)">
          <path
             style="fill:#3977a7;fill-opacity:1;stroke-width:0.0116318;stroke-miterlimit:4;stroke-dasharray:none"
             d="m 66.46068,67.158244 c 0.06221,-1.515495 0.104382,-1.808494 0.280835,-1.951172 0.722049,-0.583846 2.97352,-1.985438 4.051734,-2.522297 3.327905,-1.657014 6.588465,-2.334289 11.946018,-2.481401 l 2.646226,-0.07266 V 51.15016 42.169607 l 0.539664,-0.07397 c 0.296815,-0.04068 0.715559,-0.07397 0.930541,-0.07397 h 0.390877 v 3.41222 c 0,1.87672 0.03466,6.319222 0.07702,9.872225 l 0.07702,6.460006 -3.130363,0.06175 c -3.309549,0.06528 -4.575751,0.203813 -6.794368,0.743358 -3.739166,0.909328 -7.056332,2.710671 -10.131476,5.50176 l -0.956939,0.868545 z"
             id="path874"
             inkscape:connector-curvature="0" />
          <path
             style="fill:#3977a7;fill-opacity:1;stroke-width:0.0116318;stroke-miterlimit:4;stroke-dasharray:none"
             d="M 70.656456,68.202517 C 75.208157,65.328303 81.24538,63.791153 87.520807,63.90865 l 2.077153,0.03889 -0.0416,-7.358485 c -0.03655,-6.4652 -0.02042,-7.364488 0.13288,-7.407935 0.428511,-0.12145 3.281256,-0.659972 3.314597,-0.625707 0.02044,0.02101 0.05508,3.728376 0.07697,8.238593 l 0.0398,8.200393 -4.536388,0.0032 c -3.644981,0.0025 -4.85638,0.04379 -6.164835,0.209953 -4.155855,0.527763 -8.150253,1.625566 -11.559047,3.17684 -1.197866,0.545124 -1.263054,0.486989 -0.20389,-0.181829 z"
             id="path876"
             inkscape:connector-curvature="0" />
          <path
             style="fill:#26a9e1;fill-opacity:1;stroke-width:0.0116318;stroke-miterlimit:4;stroke-dasharray:none"
             d="m 64.332,57.11479 v -9.834909 l 1.075938,-0.693932 c 4.971252,-3.206231 10.918363,-5.286542 18.320028,-6.408381 l 1.424892,-0.215965 v 9.968986 9.968987 l -2.47175,0.07979 c -2.771999,0.08948 -5.073583,0.31935 -6.717344,0.670887 -3.692625,0.789711 -7.35746,2.607061 -10.177793,5.047052 -0.575773,0.498124 -1.138459,0.983692 -1.250415,1.079038 C 64.341931,66.941242 64.332,66.469867 64.332,57.114792 Z"
             id="path880"
             inkscape:connector-curvature="0" />
        </g>
      </g>
    </g>
    <text
       transform="scale(0.98508027,1.0151457)"
       id="text894"
       y="68.474861"
       x="26.071115"
       style="font-style:normal;font-variant:normal;font-weight:normal;font-stretch:normal;font-size:20.86750031px;line-height:0;font-family:'Tw Cen MT Condensed';-inkscape-font-specification:'Tw Cen MT Condensed, Normal';font-variant-ligatures:normal;font-variant-caps:normal;font-variant-numeric:normal;fill:#000000;fill-opacity:1;stroke:none;stroke-width:0.52168697"
       xml:space="preserve"
       inkscape:export-xdpi="258.51974"
       inkscape:export-ydpi="258.51974"><tspan
         style="font-style:normal;font-variant:normal;font-weight:normal;font-stretch:normal;font-size:20.86750031px;line-height:0.55000001;font-family:'Tw Cen MT Condensed';-inkscape-font-specification:'Tw Cen MT Condensed, Normal';font-variant-ligatures:normal;font-variant-caps:normal;font-variant-numeric:normal;stroke-width:0.52168697"
         y="68.474861"
         x="26.071115"
         id="tspan892"
         sodipodi:role="line"><tspan
   id="tspan906"
   style="font-style:italic;font-variant:normal;font-weight:normal;font-stretch:normal;line-height:0.55000001;font-family:'Lucida Sans';-inkscape-font-specification:'Lucida Sans Italic'">e</tspan>Busca</tspan></text>
  </g>
</svg>
